<?xml version="1.0" encoding="utf-8"?>
<!-- Generator: Adobe Illustrator 19.1.0, SVG Export Plug-In . SVG Version: 6.00 Build 0)  -->
<svg version="1.1" id="Layer_1" xmlns="http://www.w3.org/2000/svg" xmlns:xlink="http://www.w3.org/1999/xlink" x="0px" y="0px"
	 viewBox="158 -300.5 571.4 857.1" enable-background="new 158 -300.5 571.4 857.1" xml:space="preserve">
<path d="M318.7,449.4c0-14.9-5.2-27.5-15.6-37.9c-10.4-10.4-23.1-15.6-37.9-15.6c-14.9,0-27.5,5.2-37.9,15.6
	c-10.4,10.4-15.6,23.1-15.6,37.9c0,14.9,5.2,27.5,15.6,37.9c10.4,10.4,23.1,15.6,37.9,15.6c14.9,0,27.5-5.2,37.9-15.6
	C313.5,477,318.7,464.3,318.7,449.4L318.7,449.4z M318.7-193.4c0-14.9-5.2-27.5-15.6-37.9c-10.4-10.4-23.1-15.6-37.9-15.6
	c-14.9,0-27.5,5.2-37.9,15.6s-15.6,23.1-15.6,37.9c0,14.9,5.2,27.5,15.6,37.9s23.1,15.6,37.9,15.6c14.9,0,27.5-5.2,37.9-15.6
	S318.7-178.5,318.7-193.4z M675.8-122c0-14.9-5.2-27.5-15.6-37.9c-10.4-10.4-23.1-15.6-37.9-15.6s-27.5,5.2-37.9,15.6
	c-10.4,10.4-15.6,23.1-15.6,37.9s5.2,27.5,15.6,37.9c10.4,10.4,23.1,15.6,37.9,15.6s27.5-5.2,37.9-15.6
	C670.6-94.4,675.8-107.1,675.8-122z M729.4-122c0,19.3-4.8,37.3-14.5,53.8s-22.7,29.5-39.1,38.8c-0.7,106.8-42.8,183.8-126.1,231
	c-25.3,14.1-63.1,29.2-113.3,45.2c-47.6,14.9-79.1,28.1-94.6,39.6s-23.2,30.1-23.2,55.8v14.5c16.4,9.3,29.4,22.2,39.1,38.8
	c9.7,16.6,14.5,34.5,14.5,53.8c0,29.8-10.4,55.1-31.2,75.9c-20.8,20.8-46.1,31.2-75.9,31.2c-29.8,0-55.1-10.4-75.9-31.2
	c-20.8-20.8-31.2-46.1-31.2-75.9c0-19.3,4.8-37.3,14.5-53.8c9.7-16.6,22.7-29.5,39.1-38.8v-457.6c-16.4-9.3-29.4-22.2-39.1-38.8
	c-9.7-16.6-14.5-34.5-14.5-53.8c0-29.8,10.4-55.1,31.2-75.9c20.8-20.8,46.1-31.2,75.9-31.2c29.8,0,55.1,10.4,75.9,31.2
	c20.8,20.8,31.2,46.1,31.2,75.9c0,19.3-4.8,37.3-14.5,53.8s-22.7,29.5-39.1,38.8v277.3c20.1-9.7,48.7-20.3,85.9-31.8
	c20.5-6.3,36.7-11.8,48.8-16.5c12.1-4.6,25.2-10.4,39.3-17.3c14.1-6.9,25.1-14.2,32.9-22s15.3-17.3,22.6-28.5
	c7.3-11.2,12.5-24.1,15.6-38.8s4.7-31.7,4.7-51.1c-16.4-9.3-29.4-22.2-39.1-38.8s-14.5-34.5-14.5-53.8c0-29.8,10.4-55.1,31.2-75.9
	c20.8-20.8,46.1-31.2,75.9-31.2s55.1,10.4,75.9,31.2S729.4-151.7,729.4-122L729.4-122z"/>
</svg>
