<?xml version="1.0" encoding="utf-8"?>
<!-- Generator: Adobe Illustrator 19.1.0, SVG Export Plug-In . SVG Version: 6.00 Build 0)  -->
<svg version="1.1" id="Layer_1" xmlns="http://www.w3.org/2000/svg" xmlns:xlink="http://www.w3.org/1999/xlink" x="0px" y="0px"
	 viewBox="128 -128 512 512" enable-background="new 128 -128 512 512" xml:space="preserve">
<path d="M384-128c-141.4,0-256,114.6-256,256s114.6,256,256,256s256-114.6,256-256S525.4-128,384-128z M384-100.1
	C510-100.1,612.1,2,612.1,128S510,356.1,384,356.1S155.9,254,155.9,128S258-100.1,384-100.1z M270.8-33.3
	c-6.5,18.9-8.8,39.4-2.9,57.3c-7,7.8-12.5,16.7-16.4,26.9c-10.4,32.8-7.9,74.8,14.9,100.2c8,8.8,18.9,16,32.5,21.6
	c13.6,5.6,31.2,9.2,52.6,10.8c-14.4,6.7-24.6,10.9-28.1,25.7c-16.1,10.7-35.6,8.2-49.8-3.5c-11.2-8.2-16.3-22.7-28.7-28.1
	c-0.8-0.8-3.2-1.3-7.3-1.8c-4.1-0.4-7.3,0.8-9.7,3.5c-1.2,1.1-1.1,2.4,0.3,3.8c9.4,7.6,18.4,15.7,23.7,25.4
	c5.1,10.5,12.1,16.9,17.5,21.8c15.2,10.2,35,13.9,52.8,7.4c-2.1,12.5,2.2,35.1-1.9,46.2c-1.6,3.1-3.8,5.9-6.7,8.2
	c-2.6,2.5-10.7,5.7-9.1,9.6c0.8,1.8,3.5,2.8,8.2,3.2c10.3-0.3,22-4.4,28-12.6c2.1-2.9,4.6-6.7,4.6-11.4v-47.9c0-5.5,2-9.3,4.3-11.7
	c2.3-2.3,4.5-4.1,8.5-4.7V280c0,5.5-6.7,20.7-7.5,22.2c-1.8,3-5.8,5.8-5.8,9.3c0,1.2,0.4,1.9,1.8,2c10.2-0.4,18.7-6.5,22.8-14.9
	c5.3-8.1,6.5-12.9,7.9-22.2v-58.9h12.8v58.9c0,7.8-1.3,15.2,2.2,22.2c3.5,7,14.3,11.5,22.4,13.5c4.3,1.2,6.5,1.6,8,1.4
	c1.6-0.2,1.9-0.9,1.7-2c-0.9-3.5-5.9-6.6-8-9.3c-2.7-3.5-7.1-10.9-7.1-22.2v-63.1c4.2,1,5.9,2.4,8.5,4.7c2.5,2.4,4.3,6.2,4.3,11.7
	v47.9c0,4.7,3.4,8.5,5.5,11.4c6.5,8.3,17.5,12.5,27.8,12.6c4.7-0.4,8-1.5,8.8-3.2c0.8-1.8,0.5-3.2-1.5-4.4c-1.9-1.2-4.2-2.9-7.2-5.2
	c-2.9-2.3-5.1-5.1-6.6-8.2c-1.8-20.1,0-41.6-1.4-62c-2.8-22.2-11.3-29.5-28.4-38c20.3-1.5,37-5.2,50-11.1c39.1-19,49.9-48.3,50-87.7
	c-0.6-25.3-7.9-47.4-24.6-64.3c2.4-8.9,3-18.3,2-28c-1-9.7-3-18.5-6.1-26.3c-14.4,0.8-26.5,3.7-36.3,8.8
	c-9.8,5.1-16.8,9.4-21.1,12.9c-34.5-7.8-71.5-7.9-104.7,1.2C311.7-24.4,290.7-32.1,270.8-33.3z"/>
</svg>
