<?xml version="1.0" encoding="utf-8"?>
<!-- Generator: Adobe Illustrator 19.1.0, SVG Export Plug-In . SVG Version: 6.00 Build 0)  -->
<svg version="1.1" id="Artwork" xmlns="http://www.w3.org/2000/svg" xmlns:xlink="http://www.w3.org/1999/xlink" x="0px" y="0px"
	 viewBox="0 0 159 28" enable-background="new 0 0 159 28" xml:space="preserve">
<g>
	<rect x="45.7" width="6.8" height="27.9"/>
	<polygon points="77.9,28 61,0.1 68.7,0.1 80.5,20.3 91.7,0.1 98.7,0.1 82.6,28 	"/>
	<rect x="106.5" y="0.1" width="6.8" height="27.9"/>
	<path d="M157,1.9c-1-0.9-2.5-1.8-5.3-1.8h-21.6c-2.8,0-4.3,0.9-5.3,1.8c-1,0.9-2,2.2-2,4.8v14.7c0,2.6,1,3.9,2,4.8
		c1,0.9,2.5,1.8,5.3,1.8h21.6c2.8,0,4.2-0.9,5.2-1.8c1-0.9,2-2.2,2-4.8V6.7C159,4,158,2.7,157,1.9z M152.2,20.4
		c0,1.2-1.3,2.3-2.9,2.3h-16.6c-1.6,0-2.9-1-2.9-2.3v-13c0-1.2,1.3-2.3,2.9-2.3h16.6c1.6,0,2.9,1,2.9,2.3V20.4z"/>
	<path d="M0,0.1V28h0h28.8c2.8,0,4.2-0.9,5.2-1.8c1-0.9,2-2.2,2-4.8V6.7c0-2.6-1-3.9-2-4.8c-1-0.9-2.5-1.8-5.3-1.8L0,0.1L0,0.1z
		 M29.2,20.4c0,1.2-1.3,2.3-2.9,2.3H6.8l0-2.3v-13l0-2.3h19.5c1.6,0,2.9,1,2.9,2.3V20.4z"/>
</g>
</svg>
